<svg width="1479" height="339" xmlns="http://www.w3.org/2000/svg" viewBox="0 0 1479 339" fill="none"><path d="M495.712 303.235C478.069 303.235 462.575 299.899 449.229 293.226C435.997 286.553 425.536 277.336 417.845 265.574C410.154 253.699 405.631 239.844 404.273 224.011H453.979C454.658 231.362 456.807 238.035 460.426 244.029C464.158 249.91 469.021 254.66 475.015 258.279C481.009 261.785 487.965 263.538 495.882 263.538C502.667 263.538 508.661 262.294 513.864 259.806C519.179 257.205 523.251 253.699 526.078 249.288C528.906 244.764 530.319 239.675 530.319 234.02C530.319 228.591 529.302 223.841 527.266 219.77C525.343 215.698 522.346 212.192 518.275 209.252C514.316 206.311 509.284 203.767 503.176 201.618L465.854 188.894C453.414 184.71 442.952 179.338 434.47 172.778C425.988 166.219 419.598 158.528 415.3 149.706C411.003 140.772 408.854 130.763 408.854 119.679C408.854 105.316 412.36 92.5362 419.372 81.3397C426.384 70.03 436.11 61.2085 448.551 54.8751C460.991 48.5417 475.128 45.375 490.962 45.375C506.795 45.375 520.819 48.4286 533.034 54.5358C545.248 60.643 554.861 69.2949 561.873 80.4915C568.998 91.688 573.24 104.751 574.597 119.679H525.569C524.552 112.894 522.403 106.899 519.123 101.697C515.956 96.3815 511.828 92.31 506.739 89.4826C501.763 86.5421 496.221 85.0719 490.114 85.0719C483.893 85.0719 478.408 86.3159 473.658 88.804C468.908 91.1791 465.176 94.572 462.462 98.9827C459.747 103.393 458.39 108.37 458.39 113.911C458.39 121.489 460.595 127.54 465.006 132.063C469.417 136.474 476.485 140.433 486.212 143.939L521.837 156.662C534.73 161.073 545.418 166.784 553.9 173.796C562.495 180.695 568.885 188.838 573.07 198.225C577.368 207.499 579.516 217.904 579.516 229.439C579.516 243.916 576.01 256.752 568.998 267.949C562.1 279.032 552.26 287.684 539.48 293.904C526.813 300.125 512.224 303.235 495.712 303.235Z" fill="currentColor"></path><path d="M687.93 303.235C669.043 303.235 652.135 299.107 637.206 290.851C622.391 282.482 610.742 270.946 602.26 256.243C593.89 241.428 589.706 224.633 589.706 205.859C589.706 186.972 593.89 170.12 602.26 155.305C610.742 140.376 622.391 128.784 637.206 120.528C652.135 112.272 669.043 108.144 687.93 108.144C706.93 108.144 723.895 112.272 738.823 120.528C753.865 128.784 765.571 140.319 773.94 155.135C782.309 169.951 786.55 186.859 786.663 205.859C786.55 224.633 782.309 241.428 773.94 256.243C765.684 270.946 754.035 282.482 738.993 290.851C723.951 299.107 706.93 303.235 687.93 303.235ZM687.93 260.654C697.883 260.654 706.704 258.392 714.395 253.868C722.085 249.231 728.023 242.785 732.207 234.529C736.392 226.16 738.484 216.603 738.484 205.859C738.484 195.002 736.392 185.388 732.207 177.019C728.023 168.65 722.085 162.204 714.395 157.68C706.704 153.043 697.883 150.724 687.93 150.724C678.091 150.724 669.326 153.043 661.635 157.68C654.058 162.204 648.177 168.65 643.992 177.019C639.807 185.388 637.772 195.002 637.885 205.859C637.885 216.603 639.977 226.16 644.162 234.529C648.459 242.785 654.34 249.231 661.805 253.868C669.382 258.392 678.091 260.654 687.93 260.654Z" fill="currentColor"></path><path d="M919.165 112.215H965.647V299.163H920.352V257.601L929.513 253.359C927.703 263.086 923.688 271.794 917.468 279.485C911.361 287.062 903.783 292.943 894.736 297.128C885.688 301.199 875.962 303.235 865.557 303.235C852.325 303.235 840.676 300.351 830.61 294.583C820.544 288.815 812.797 280.616 807.369 269.985C801.94 259.24 799.226 246.856 799.226 232.832V112.215H845.539V222.484C845.539 230.401 846.952 237.3 849.78 243.181C852.72 249.062 856.792 253.586 861.994 256.752C867.31 259.806 873.53 261.333 880.655 261.333C887.893 261.333 894.396 259.467 900.164 255.734C906.045 251.889 910.682 246.687 914.075 240.127C917.468 233.454 919.165 225.99 919.165 217.734V112.215Z" fill="currentColor"></path><path d="M986.69 112.215H1030.97V153.269L1021.98 156.492C1024.12 146.653 1027.91 138.114 1033.34 130.876C1038.77 123.525 1045.44 117.926 1053.36 114.081C1061.28 110.236 1070.04 108.313 1079.66 108.313V151.573C1069.7 151.459 1061.16 153.269 1054.04 157.001C1047.03 160.62 1041.65 166.049 1037.92 173.287C1034.19 180.412 1032.32 189.064 1032.32 199.243V299.163H986.69V112.215Z" fill="currentColor"></path><path d="M1178.06 303.235C1159.06 303.235 1142.1 299.05 1127.17 290.681C1112.24 282.199 1100.48 270.607 1091.88 255.904C1083.4 241.202 1079.16 224.52 1079.16 205.859C1079.16 186.972 1083.28 170.12 1091.54 155.305C1099.91 140.376 1111.45 128.784 1126.15 120.528C1140.85 112.272 1157.59 108.144 1176.36 108.144C1193.21 108.144 1208.54 111.48 1222.34 118.153C1236.25 124.825 1247.5 134.212 1256.1 146.314C1264.8 158.302 1270.18 171.986 1272.21 187.368H1222.51C1220.7 180.129 1217.59 173.796 1213.18 168.367C1208.77 162.826 1203.34 158.585 1196.89 155.644C1190.44 152.59 1183.55 151.064 1176.19 151.064C1166.47 151.064 1157.93 153.382 1150.58 158.019C1143.34 162.543 1137.63 168.933 1133.44 177.189C1129.37 185.445 1127.34 195.002 1127.34 205.859C1127.34 216.603 1129.43 226.16 1133.61 234.529C1137.8 242.785 1143.68 249.175 1151.26 253.699C1158.83 258.222 1167.65 260.484 1177.72 260.484C1184.39 260.484 1190.78 259.127 1196.89 256.413C1203.11 253.699 1208.37 249.91 1212.67 245.047C1216.97 240.184 1220.02 234.529 1221.83 228.082H1271.36C1268.88 243.011 1263.33 256.187 1254.74 267.61C1246.14 279.032 1235.17 287.854 1221.83 294.074C1208.6 300.181 1194.01 303.235 1178.06 303.235Z" fill="currentColor"></path><path d="M1381.48 303.574C1363.05 303.687 1346.42 299.616 1331.61 291.36C1316.9 282.991 1305.31 271.398 1296.83 256.583C1288.46 241.767 1284.28 224.859 1284.28 205.859C1284.28 187.424 1288.57 170.742 1297.17 155.814C1305.76 140.885 1317.41 129.236 1332.12 120.867C1346.82 112.498 1363.22 108.313 1381.31 108.313C1401.67 108.313 1419.48 112.837 1434.75 121.885C1450.13 130.932 1461.61 143.769 1469.19 160.394C1476.88 176.906 1479.65 195.85 1477.5 217.225H1303.11V185.841H1437.97L1429.66 189.573C1429.44 181.204 1427.23 173.683 1423.05 167.01C1418.97 160.338 1413.43 155.192 1406.42 151.573C1399.41 147.84 1391.49 145.974 1382.67 145.974C1373.28 145.974 1364.74 148.123 1357.05 152.421C1349.36 156.718 1343.26 162.769 1338.73 170.573C1334.32 178.263 1332.12 186.915 1332.12 196.528V214.171C1332.12 223.898 1334.26 232.663 1338.56 240.466C1342.86 248.157 1348.85 254.151 1356.54 258.449C1364.24 262.746 1372.83 264.895 1382.33 264.895C1389.57 264.782 1396.3 263.538 1402.52 261.163C1408.74 258.675 1414 255.339 1418.3 251.154C1422.71 246.969 1425.82 242.219 1427.63 236.904H1476.14C1473.2 249.91 1467.32 261.502 1458.5 271.681C1449.68 281.747 1438.6 289.607 1425.25 295.262C1411.91 300.916 1397.32 303.687 1381.48 303.574Z" fill="currentColor"></path><path d="M162.529 338.265L335.564 0H175.167L0 338.265H162.529Z" fill="currentColor"></path></svg>